<svg width="134" height="18" viewBox="0 0 134 18" fill="none" xmlns="http://www.w3.org/2000/svg">
<path d="M14.6953 17H13.7344C14.0781 15.4531 14.7734 11.9062 15.8203 6.35938L16.3711 3.44141C15.3867 4.65234 14.1914 6.28125 12.7852 8.32812C11.3867 10.375 9.45703 13.2656 6.99609 17H4.82812C5.32031 16.0703 5.85156 14.6641 6.42188 12.7812C7.52344 9.17969 8.07422 6.37891 8.07422 4.37891C8.07422 1.99609 7.35156 0.804688 5.90625 0.804688C5.27344 0.804688 4.69922 0.96875 4.18359 1.29688C3.66797 1.61719 3.25 2.02734 2.92969 2.52734C2.60938 3.02734 2.34375 3.60156 2.13281 4.25C1.74219 5.40625 1.54688 6.58203 1.54688 7.77734C1.54688 8.97266 1.72266 10.1055 2.07422 11.1758C2.42578 12.2461 2.99219 13.043 3.77344 13.5664L3.22266 14.0234C2.39453 13.3281 1.78516 12.4102 1.39453 11.2695C1.01172 10.1289 0.820312 9.08203 0.820312 8.12891C0.820312 7.17578 0.878906 6.35938 0.996094 5.67969C1.11328 5 1.30469 4.32422 1.57031 3.65234C1.84375 2.97266 2.17578 2.375 2.56641 1.85938C2.95703 1.33594 3.45312 0.914062 4.05469 0.59375C4.66406 0.265625 5.33984 0.101562 6.08203 0.101562C6.83203 0.101562 7.48438 0.230469 8.03906 0.488281C8.59375 0.738281 9.02734 1.09375 9.33984 1.55469C9.93359 2.42969 10.2305 3.58594 10.2305 5.02344C10.2305 7.3125 9.40625 10.4102 7.75781 14.3164C10.3359 9.98047 12.3594 6.84766 13.8281 4.91797C15.1562 3.16797 16.3828 1.82812 17.5078 0.898438L18.3398 1.28516L16.2305 14.9492C17.9258 13.8008 19.3047 12.3984 20.3672 10.7422C21.4375 9.08594 22.1484 7.32422 22.5 5.45703C21.7344 5.09766 21.0781 4.62109 20.5312 4.02734C19.9844 3.43359 19.7109 2.82031 19.7109 2.1875C19.7109 1.54688 19.8789 1.03906 20.2148 0.664062C20.5586 0.289062 20.9648 0.101562 21.4336 0.101562C21.9102 0.101562 22.2891 0.1875 22.5703 0.359375C22.8594 0.53125 23.082 0.765625 23.2383 1.0625C23.543 1.63281 23.6953 2.28125 23.6953 3.00781C23.6953 3.73438 23.6328 4.45312 23.5078 5.16406C24.0703 5.45312 24.6758 5.66406 25.3242 5.79688L25.1602 6.34766C24.168 6.09766 23.5664 5.92969 23.3555 5.84375C22.8633 8.17969 21.8906 10.3008 20.4375 12.207C18.9844 14.1055 17.0703 15.7031 14.6953 17ZM21.0117 2.29297C21.0977 3.19141 21.6484 3.99609 22.6641 4.70703C22.7891 4.09766 22.8516 3.59375 22.8516 3.19531C22.8516 2.79688 22.8438 2.53125 22.8281 2.39844C22.8203 2.26562 22.793 2.09375 22.7461 1.88281C22.6523 1.44531 22.3945 1.22656 21.9727 1.22656C21.6992 1.22656 21.4688 1.32422 21.2812 1.51953C21.1016 1.71484 21.0117 1.94531 21.0117 2.21094V2.29297Z" fill="white"/>
<path d="M28.4414 10.1797H30.2695L29.3438 13.6836C29.1953 14.1758 29.1211 14.625 29.1211 15.0312C29.1211 15.4297 29.1914 15.6289 29.332 15.6289C29.4727 15.6289 29.6641 15.5078 29.9062 15.2656C30.1562 15.0156 30.3672 14.7656 30.5391 14.5156L30.8086 14.1406L31.3125 14.6094C31.0547 15.1094 30.7266 15.5664 30.3281 15.9805C29.5547 16.7852 28.8828 17.1875 28.3125 17.1875C27.6406 17.1875 27.3047 16.668 27.3047 15.6289C27.3047 15.457 27.3125 15.3281 27.3281 15.2422C27.2109 15.6406 26.9883 15.9922 26.6602 16.2969C26.0352 16.8906 25.3281 17.1875 24.5391 17.1875C23.7578 17.1875 23.1289 16.9219 22.6523 16.3906C22.1836 15.8516 21.9492 15.1797 21.9492 14.375C21.9492 13.125 22.3555 12.0703 23.168 11.2109C23.9805 10.3516 24.9336 9.92188 26.0273 9.92188C26.5742 9.92188 27.0273 10.0742 27.3867 10.3789C27.7461 10.6758 27.9805 11.0664 28.0898 11.5508L28.4414 10.1797ZM26.4844 10.9297C26.0312 10.9297 25.6055 11.1211 25.207 11.5039C24.8164 11.8789 24.5156 12.3359 24.3047 12.875C24.0938 13.4062 23.9883 13.9258 23.9883 14.4336C23.9883 14.9414 24.0977 15.3516 24.3164 15.6641C24.543 15.9766 24.8867 16.1328 25.3477 16.1328C25.8164 16.1328 26.2383 15.9219 26.6133 15.5C27.3242 14.6875 27.6797 13.7227 27.6797 12.6055C27.6797 11.4883 27.2812 10.9297 26.4844 10.9297Z" fill="white"/>
<path d="M33.5391 10.1797C34.3438 7.67969 35.1641 5.58594 36 3.89844L37.4531 4.01562C37.3672 4.26562 37.1562 4.86719 36.8203 5.82031C36.0938 7.92188 35.625 9.375 35.4141 10.1797H37.2539L37.0664 10.9531H35.168C34.4492 13.1719 34.0898 14.5234 34.0898 15.0078C34.0898 15.4844 34.1367 15.7227 34.2305 15.7227C34.332 15.7227 34.4219 15.7031 34.5 15.6641C34.7109 15.5469 35.1641 14.9766 35.8594 13.9531L36.3398 14.3867C35.8164 15.3398 35.2773 16.0469 34.7227 16.5078C34.168 16.9609 33.7109 17.1875 33.3516 17.1875C32.9922 17.1875 32.7188 17.0625 32.5312 16.8125C32.3516 16.5625 32.2617 16.2422 32.2617 15.8516C32.2617 14.8594 32.6094 13.2266 33.3047 10.9531H32.0742L32.2617 10.1797H33.5391Z" fill="white"/>
<path d="M43.3125 14.5742L43.793 14.9141C43.4492 15.6094 42.918 16.1641 42.1992 16.5781C41.4883 16.9844 40.7422 17.1875 39.9609 17.1875C39.1797 17.1875 38.5195 16.9492 37.9805 16.4727C37.4492 15.9961 37.1836 15.3242 37.1836 14.457C37.1836 13.582 37.4492 12.793 37.9805 12.0898C38.5195 11.3867 39.1797 10.8516 39.9609 10.4844C40.7422 10.1094 41.5312 9.92188 42.3281 9.92188C43.3047 9.92188 43.9609 10.1562 44.2969 10.625C44.4375 10.8125 44.5078 11.0508 44.5078 11.3398C44.5078 11.6211 44.4102 11.8594 44.2148 12.0547C44.0195 12.25 43.7852 12.3477 43.5117 12.3477C43.2383 12.3477 43.0078 12.2617 42.8203 12.0898C42.6328 11.9102 42.5391 11.6836 42.5391 11.4102C42.5391 11.1367 42.707 10.8867 43.043 10.6602C42.7461 10.5664 42.4727 10.5195 42.2227 10.5195C41.6836 10.5195 41.1875 10.7188 40.7344 11.1172C40.2812 11.5156 39.9375 12 39.7031 12.5703C39.4688 13.1328 39.3516 13.6875 39.3516 14.2344C39.3516 14.7812 39.4805 15.2227 39.7383 15.5586C40.0039 15.8867 40.3828 16.0508 40.875 16.0508C41.3672 16.0508 41.8398 15.9141 42.293 15.6406C42.7461 15.3594 43.0859 15.0039 43.3125 14.5742Z" fill="white"/>
<path d="M50.1445 15.9219C50.1445 15.5156 50.3086 14.8633 50.6367 13.9648C50.9648 13.0664 51.1289 12.4258 51.1289 12.043C51.1289 11.6523 50.9922 11.457 50.7188 11.457C50.4531 11.457 50.1289 11.6484 49.7461 12.0312C49.3633 12.4062 48.9961 12.8672 48.6445 13.4141C48.0664 14.2969 47.4844 15.3047 46.8984 16.4375L46.5938 17H44.9062C45.2891 14.1719 45.6562 12.0781 46.0078 10.7188C46.3594 9.35938 46.6953 8.19922 47.0156 7.23828C47.3359 6.27734 47.6797 5.42578 48.0469 4.68359C48.875 2.98047 49.8281 1.71875 50.9062 0.898438L51.7969 1.30859C50.9609 2.14453 50.1914 3.61719 49.4883 5.72656C48.793 7.82812 48.0195 10.7305 47.168 14.4336C47.2148 14.3555 47.3086 14.1914 47.4492 13.9414C47.5977 13.6836 47.7109 13.4922 47.7891 13.3672C47.8672 13.2344 47.9844 13.0391 48.1406 12.7812C48.3047 12.5234 48.4414 12.3203 48.5508 12.1719C48.6602 12.0156 48.8008 11.8242 48.9727 11.5977C49.1523 11.3711 49.3086 11.1914 49.4414 11.0586C49.582 10.918 49.7461 10.7695 49.9336 10.6133C50.1211 10.4492 50.3008 10.3203 50.4727 10.2266C50.8711 10.0234 51.2969 9.92188 51.75 9.92188C52.2031 9.92188 52.543 10.0469 52.7695 10.2969C53.0039 10.5469 53.1211 10.8828 53.1211 11.3047C53.1211 11.7266 52.9258 12.4375 52.5352 13.4375C52.1445 14.4297 51.9492 15.043 51.9492 15.2773C51.9492 15.5117 52.0117 15.6289 52.1367 15.6289C52.4648 15.6289 52.9609 15.1328 53.625 14.1406L54.1289 14.6094C53.6289 15.4688 53.1055 16.1133 52.5586 16.543C52.0195 16.9727 51.5742 17.1875 51.2227 17.1875C50.8789 17.1875 50.6133 17.0781 50.4258 16.8594C50.2383 16.6406 50.1445 16.3281 50.1445 15.9219Z" fill="white"/>
<path d="M60.4453 10.1797C61.25 7.67969 62.0703 5.58594 62.9062 3.89844L64.3594 4.01562C64.2734 4.26562 64.0625 4.86719 63.7266 5.82031C63 7.92188 62.5312 9.375 62.3203 10.1797H64.1602L63.9727 10.9531H62.0742C61.3555 13.1719 60.9961 14.5234 60.9961 15.0078C60.9961 15.4844 61.043 15.7227 61.1367 15.7227C61.2383 15.7227 61.3281 15.7031 61.4062 15.6641C61.6172 15.5469 62.0703 14.9766 62.7656 13.9531L63.2461 14.3867C62.7227 15.3398 62.1836 16.0469 61.6289 16.5078C61.0742 16.9609 60.6172 17.1875 60.2578 17.1875C59.8984 17.1875 59.625 17.0625 59.4375 16.8125C59.2578 16.5625 59.168 16.2422 59.168 15.8516C59.168 14.8594 59.5156 13.2266 60.2109 10.9531H58.9805L59.168 10.1797H60.4453Z" fill="white"/>
<path d="M69.1758 15.9219C69.1758 15.5156 69.3398 14.8633 69.668 13.9648C69.9961 13.0664 70.1602 12.4258 70.1602 12.043C70.1602 11.6523 70.0234 11.457 69.75 11.457C69.4844 11.457 69.1602 11.6484 68.7773 12.0312C68.3945 12.4062 68.0273 12.8672 67.6758 13.4141C67.0977 14.2969 66.5156 15.3047 65.9297 16.4375L65.625 17H63.9375C64.3203 14.1719 64.6875 12.0781 65.0391 10.7188C65.3906 9.35938 65.7266 8.19922 66.0469 7.23828C66.3672 6.27734 66.7109 5.42578 67.0781 4.68359C67.9062 2.98047 68.8594 1.71875 69.9375 0.898438L70.8281 1.30859C69.9922 2.14453 69.2227 3.61719 68.5195 5.72656C67.8242 7.82812 67.0508 10.7305 66.1992 14.4336C66.2461 14.3555 66.3398 14.1914 66.4805 13.9414C66.6289 13.6836 66.7422 13.4922 66.8203 13.3672C66.8984 13.2344 67.0156 13.0391 67.1719 12.7812C67.3359 12.5234 67.4727 12.3203 67.582 12.1719C67.6914 12.0156 67.832 11.8242 68.0039 11.5977C68.1836 11.3711 68.3398 11.1914 68.4727 11.0586C68.6133 10.918 68.7773 10.7695 68.9648 10.6133C69.1523 10.4492 69.332 10.3203 69.5039 10.2266C69.9023 10.0234 70.3281 9.92188 70.7812 9.92188C71.2344 9.92188 71.5742 10.0469 71.8008 10.2969C72.0352 10.5469 72.1523 10.8828 72.1523 11.3047C72.1523 11.7266 71.957 12.4375 71.5664 13.4375C71.1758 14.4297 70.9805 15.043 70.9805 15.2773C70.9805 15.5117 71.043 15.6289 71.168 15.6289C71.4961 15.6289 71.9922 15.1328 72.6562 14.1406L73.1602 14.6094C72.6602 15.4688 72.1367 16.1133 71.5898 16.543C71.0508 16.9727 70.6055 17.1875 70.2539 17.1875C69.9102 17.1875 69.6445 17.0781 69.457 16.8594C69.2695 16.6406 69.1758 16.3281 69.1758 15.9219Z" fill="white"/>
<path d="M75.9375 14.6914C75.9844 15.5898 76.5898 16.0391 77.7539 16.0391C78.1836 16.0391 78.6289 15.918 79.0898 15.6758C79.5586 15.4258 79.9375 15.1328 80.2266 14.7969L80.7305 15.125C80.082 16.2109 79.0469 16.875 77.625 17.1172C77.3125 17.1641 77.0117 17.1875 76.7227 17.1875C75.8789 17.1875 75.1758 16.9102 74.6133 16.3555C74.0508 15.793 73.7695 15.1094 73.7695 14.3047C73.7695 13.5 74.0156 12.7578 74.5078 12.0781C75 11.3906 75.6133 10.8594 76.3477 10.4844C77.0898 10.1094 77.8203 9.92188 78.5391 9.92188C79.2578 9.92188 79.8789 10.0859 80.4023 10.4141C80.9336 10.7422 81.2031 11.1836 81.2109 11.7383C81.2266 12.293 81.0664 12.7734 80.7305 13.1797C80.3945 13.5781 79.9688 13.8828 79.4531 14.0938C78.4297 14.5078 77.4258 14.7148 76.4414 14.7148L75.9375 14.6914ZM75.8672 14.0469C76.7344 14.0156 77.4297 13.8789 77.9531 13.6367C78.4844 13.3867 78.8516 13.1055 79.0547 12.793C79.2656 12.4727 79.3711 12.1406 79.3711 11.7969C79.3711 11.4453 79.2812 11.1875 79.1016 11.0234C78.9219 10.8516 78.7305 10.7656 78.5273 10.7656C78.0273 10.7656 77.5664 10.9414 77.1445 11.293C76.7305 11.6367 76.4141 12.0586 76.1953 12.5586C75.9766 13.0508 75.8672 13.5469 75.8672 14.0469Z" fill="white"/>
<path d="M91.6289 0.101562C94.418 0.101562 95.8125 1.74219 95.8125 5.02344C95.8125 7.51562 94.9883 10.8516 93.3398 15.0312C95.6133 13.8125 97.4023 12.3984 98.707 10.7891C99.918 9.28906 100.895 7.51172 101.637 5.45703C100.926 5.10547 100.332 4.65234 99.8555 4.09766C99.3789 3.53516 99.1406 2.93359 99.1406 2.29297C99.1406 1.65234 99.3359 1.12891 99.7266 0.722656C100.117 0.308594 100.609 0.101562 101.203 0.101562C101.797 0.101562 102.262 0.316406 102.598 0.746094C102.934 1.16797 103.102 1.75781 103.102 2.51562C103.102 3.27344 102.957 4.15625 102.668 5.16406C103.23 5.45312 103.824 5.66406 104.449 5.79688L104.238 6.34766C103.34 6.12109 102.754 5.95312 102.48 5.84375C101.707 8.17969 100.387 10.3008 98.5195 12.207C96.6602 14.1055 94.2773 15.7031 91.3711 17H90.4102C90.9102 16.0234 91.4414 14.6055 92.0039 12.7461C93.0977 9.16797 93.6445 6.37891 93.6445 4.37891C93.6445 1.99609 92.9258 0.804688 91.4883 0.804688C90.8477 0.804688 90.2695 0.96875 89.7539 1.29688C89.2383 1.61719 88.8203 2.02734 88.5 2.52734C88.1797 3.02734 87.9141 3.60156 87.7031 4.25C87.3125 5.40625 87.1172 6.60938 87.1172 7.85938C87.1172 8.92188 87.2344 9.84375 87.4688 10.625C87.8906 12.0312 88.5195 13.0117 89.3555 13.5664L88.8047 14.0234C87.9766 13.3281 87.3672 12.4102 86.9766 11.2695C86.5938 10.1289 86.4023 9.08203 86.4023 8.12891C86.4023 7.17578 86.4609 6.35938 86.5781 5.67969C86.6953 5 86.8867 4.32422 87.1523 3.65234C87.4258 2.97266 87.7578 2.375 88.1484 1.85938C88.5391 1.33594 89.0352 0.914062 89.6367 0.59375C90.2383 0.265625 90.9023 0.101562 91.6289 0.101562ZM101.473 1.22656C101.191 1.22656 100.949 1.33594 100.746 1.55469C100.543 1.76562 100.441 2.05859 100.441 2.43359C100.441 2.80078 100.574 3.19531 100.84 3.61719C101.113 4.03125 101.461 4.39453 101.883 4.70703C102.141 3.77734 102.27 3.07031 102.27 2.58594C102.27 1.67969 102.004 1.22656 101.473 1.22656Z" fill="white"/>
<path d="M102.891 17.1875C102.562 17.1875 102.305 17.0859 102.117 16.8828C101.93 16.6797 101.836 16.4023 101.836 16.0508C101.836 15.6914 101.926 15.207 102.105 14.5977C102.293 13.9805 102.477 13.4219 102.656 12.9219C102.844 12.4219 102.938 12.0898 102.938 11.9258C102.938 11.7539 102.883 11.668 102.773 11.668C102.5 11.668 102.059 12.207 101.449 13.2852L100.664 12.8281C101.812 10.8906 102.867 9.92188 103.828 9.92188C104.484 9.92188 104.812 10.3359 104.812 11.1641C104.812 11.4062 104.734 11.793 104.578 12.3242L103.734 14.7383C103.648 14.9648 103.605 15.1719 103.605 15.3594C103.605 15.5391 103.676 15.6289 103.816 15.6289C104.082 15.6289 104.57 15.1367 105.281 14.1523L105.773 14.6094C105.352 15.3906 104.848 16.0156 104.262 16.4844C103.684 16.9531 103.227 17.1875 102.891 17.1875ZM106.23 6.46484C106.23 6.77734 106.125 7.0625 105.914 7.32031C105.703 7.57812 105.418 7.70703 105.059 7.70703C104.699 7.70703 104.43 7.60156 104.25 7.39062C104.07 7.17188 103.98 6.89844 103.98 6.57031C103.98 6.24219 104.09 5.95312 104.309 5.70312C104.535 5.44531 104.824 5.31641 105.176 5.31641C105.527 5.31641 105.789 5.42969 105.961 5.65625C106.141 5.875 106.23 6.14453 106.23 6.46484Z" fill="white"/>
<path d="M112.16 15.5586C111.34 16.6445 110.359 17.1875 109.219 17.1875C108.453 17.1875 107.805 16.9102 107.273 16.3555C106.742 15.793 106.477 15.0781 106.477 14.2109C106.477 13.0469 106.914 12.043 107.789 11.1992C108.664 10.3477 109.645 9.92188 110.73 9.92188C111.293 9.92188 111.773 10.0352 112.172 10.2617C112.578 10.4805 112.84 10.7812 112.957 11.1641C113.316 9.6875 113.832 7.97656 114.504 6.03125C115.184 4.07812 115.809 2.54297 116.379 1.42578H118.254C117.527 2.86328 116.633 5.30078 115.57 8.73828C114.508 12.168 113.977 14.3125 113.977 15.1719C113.977 15.4766 114.039 15.6289 114.164 15.6289C114.477 15.6289 114.977 15.1328 115.664 14.1406L116.168 14.6094C115.676 15.4844 115.148 16.1328 114.586 16.5547C114.023 16.9766 113.57 17.1875 113.227 17.1875C112.891 17.1875 112.625 17.0664 112.43 16.8242C112.242 16.5742 112.148 16.2148 112.148 15.7461C112.148 15.7305 112.148 15.7031 112.148 15.6641C112.156 15.6172 112.16 15.582 112.16 15.5586ZM108.598 14.1406C108.598 15.3984 109.082 16.0273 110.051 16.0273C110.957 16.0273 111.703 15.4219 112.289 14.2109C112.562 13.6406 112.699 13.1797 112.699 12.8281C112.699 11.5625 112.219 10.9297 111.258 10.9297C110.617 10.9297 110.012 11.2266 109.441 11.8203C108.879 12.4062 108.598 13.1797 108.598 14.1406Z" fill="white"/>
<path d="M118.945 14.6914C118.992 15.5898 119.598 16.0391 120.762 16.0391C121.191 16.0391 121.637 15.918 122.098 15.6758C122.566 15.4258 122.945 15.1328 123.234 14.7969L123.738 15.125C123.09 16.2109 122.055 16.875 120.633 17.1172C120.32 17.1641 120.02 17.1875 119.73 17.1875C118.887 17.1875 118.184 16.9102 117.621 16.3555C117.059 15.793 116.777 15.1094 116.777 14.3047C116.777 13.5 117.023 12.7578 117.516 12.0781C118.008 11.3906 118.621 10.8594 119.355 10.4844C120.098 10.1094 120.828 9.92188 121.547 9.92188C122.266 9.92188 122.887 10.0859 123.41 10.4141C123.941 10.7422 124.211 11.1836 124.219 11.7383C124.234 12.293 124.074 12.7734 123.738 13.1797C123.402 13.5781 122.977 13.8828 122.461 14.0938C121.438 14.5078 120.434 14.7148 119.449 14.7148L118.945 14.6914ZM118.875 14.0469C119.742 14.0156 120.438 13.8789 120.961 13.6367C121.492 13.3867 121.859 13.1055 122.062 12.793C122.273 12.4727 122.379 12.1406 122.379 11.7969C122.379 11.4453 122.289 11.1875 122.109 11.0234C121.93 10.8516 121.738 10.7656 121.535 10.7656C121.035 10.7656 120.574 10.9414 120.152 11.293C119.738 11.6367 119.422 12.0586 119.203 12.5586C118.984 13.0508 118.875 13.5469 118.875 14.0469Z" fill="white"/>
<path d="M125.051 14.2109C125.051 13.625 125.191 13.0625 125.473 12.5234C125.762 11.9766 126.133 11.5156 126.586 11.1406C127.586 10.3281 128.605 9.92188 129.645 9.92188C130.684 9.92188 131.535 10.1992 132.199 10.7539C132.863 11.3086 133.195 12.0039 133.195 12.8398C133.195 13.668 132.965 14.4141 132.504 15.0781C132.051 15.7422 131.449 16.2617 130.699 16.6367C129.949 17.0039 129.129 17.1875 128.238 17.1875C127.355 17.1875 126.602 16.9102 125.977 16.3555C125.359 15.793 125.051 15.0781 125.051 14.2109ZM128.883 16.4609C129.242 16.4609 129.578 16.3438 129.891 16.1094C130.211 15.875 130.453 15.5703 130.617 15.1953C130.938 14.4766 131.098 13.7344 131.098 12.9688C131.098 12.2031 130.957 11.625 130.676 11.2344C130.395 10.8359 129.996 10.6367 129.48 10.6367C128.965 10.6367 128.453 10.9727 127.945 11.6445C127.445 12.3164 127.195 13.1719 127.195 14.2109C127.195 15.7109 127.758 16.4609 128.883 16.4609Z" fill="white"/>
</svg>
