<svg id="Layer_1" data-name="Layer 1" xmlns="http://www.w3.org/2000/svg" xmlns:xlink="http://www.w3.org/1999/xlink" viewBox="0 0 28 30"><defs><style>.cls-1{fill:#e4003a;}.cls-2{fill:red;}.cls-3{clip-path:url(#clip-path);}.cls-4{clip-path:url(#clip-path-2);}.cls-5{clip-path:url(#clip-path-3);}.cls-6{fill:#469315;}.cls-7{fill:#fff;}.cls-8{clip-path:url(#clip-path-4);}.cls-9{clip-path:url(#clip-path-5);}.cls-10{fill:#004699;}</style><clipPath id="clip-path"><path class="cls-1" d="M14.51,6.82v5a3.52,3.52,0,0,0-1.22-.22,3.58,3.58,0,0,0-1.23.22v-5Z"/></clipPath><clipPath id="clip-path-2"><path class="cls-2" d="M14.51,18.13v5.06H12.06V18.13a3.36,3.36,0,0,0,1.23.23A3.31,3.31,0,0,0,14.51,18.13Z"/></clipPath><clipPath id="clip-path-3"><rect class="cls-1" x="12.06" y="13.24" width="2.44" height="10.84"/></clipPath><clipPath id="clip-path-4"><path class="cls-1" d="M23,6.82l-6.53,7.1a3.35,3.35,0,0,0-1.22-1.64L15,12.12l4.44-5.31Z"/></clipPath><clipPath id="clip-path-5"><path class="cls-1" d="M23,23.19l-6.53-7.1a3.44,3.44,0,0,1-1.22,1.64l-.24.16,4.44,5.3Z"/></clipPath></defs><path class="cls-1" d="M14.51,6.82v5a3.52,3.52,0,0,0-1.22-.22,3.58,3.58,0,0,0-1.23.22v-5Z"/><g class="cls-3"><path class="cls-1" d="M14.51,6.82v5a3.52,3.52,0,0,0-1.22-.22,3.58,3.58,0,0,0-1.23.22v-5Z"/></g><path class="cls-2" d="M14.51,18.13v5.06H12.06V18.13a3.36,3.36,0,0,0,1.23.23A3.31,3.31,0,0,0,14.51,18.13Z"/><g class="cls-4"><path class="cls-2" d="M14.51,18.13v5.06H12.06V18.13a3.36,3.36,0,0,0,1.23.23A3.31,3.31,0,0,0,14.51,18.13Z"/><rect class="cls-1" x="12.06" y="13.24" width="2.44" height="10.84"/><g class="cls-5"><rect class="cls-1" x="12.06" y="13.24" width="2.44" height="10.84"/></g></g><circle class="cls-6" cx="13.29" cy="15" r="2.77" transform="translate(-6.72 13.79) rotate(-45)"/><path class="cls-7" d="M12,16.05a1.87,1.87,0,0,1,.1-1.51,2,2,0,0,1,1.36-.81,2.59,2.59,0,0,1,1.32.08,1.75,1.75,0,0,0-.54.61c-.21.44-.07.68-.32,1.1a1.51,1.51,0,0,1-.62.61,7.32,7.32,0,0,1-.73.21,2.13,2.13,0,0,0-.73.43,5.57,5.57,0,0,1,.76-1,5.87,5.87,0,0,1,.85-.7L13,15l.79-.77a3.74,3.74,0,0,0-.73.36,3.86,3.86,0,0,0-.74.62l.41.07Z"/><path class="cls-1" d="M23,6.82l-6.53,7.1a3.35,3.35,0,0,0-1.22-1.64L15,12.12l4.44-5.31Z"/><g class="cls-8"><path class="cls-1" d="M23,6.82l-6.53,7.1a3.35,3.35,0,0,0-1.22-1.64L15,12.12l4.66-5.3Z"/></g><path class="cls-1" d="M23,23.19l-6.53-7.1a3.44,3.44,0,0,1-1.22,1.64l-.24.16,4.44,5.3Z"/><g class="cls-9"><path class="cls-1" d="M23,23.19l-6.53-7.1a3.44,3.44,0,0,1-1.22,1.64l-.24.16,4.66,5.3Z"/></g><path class="cls-10" d="M9.61,10.47a6,6,0,0,0-1.73,2.38.19.19,0,0,1-.24.11l-2-.64a.21.21,0,0,1-.12-.25A8.53,8.53,0,0,1,8.14,8.48a.19.19,0,0,1,.27,0l1.23,1.69A.19.19,0,0,1,9.61,10.47Z"/><path class="cls-10" d="M11.56,20.74v2.44a8,8,0,0,1-1.64-.54A8.18,8.18,0,0,1,8.76,22a.18.18,0,0,1,0-.27L10,20a.14.14,0,0,1,.2,0,6,6,0,0,0,.58.33,5.61,5.61,0,0,0,.71.29A.15.15,0,0,1,11.56,20.74Z"/><path class="cls-10" d="M9.66,19.79,8.41,21.52a.19.19,0,0,1-.27,0A8.43,8.43,0,0,1,5.53,18a.21.21,0,0,1,.12-.25l2-.66a.15.15,0,0,1,.18.09,6,6,0,0,0,1.78,2.44A.14.14,0,0,1,9.66,19.79Z"/><path class="cls-10" d="M7.47,15a5.79,5.79,0,0,0,.19,1.51.15.15,0,0,1-.1.18l-2,.65a.18.18,0,0,1-.24-.12,8.36,8.36,0,0,1,0-4.44.19.19,0,0,1,.24-.13l2,.66a.15.15,0,0,1,.1.18A5.79,5.79,0,0,0,7.47,15Z"/><path class="cls-10" d="M11.56,17.83v2.4c-.21-.08-.44-.17-.69-.29l-.46-.27a.15.15,0,0,1,0-.21Z"/><path class="cls-10" d="M11.21,12.37a3.57,3.57,0,0,0-1,1.42l-1.85-.6a.16.16,0,0,1-.09-.2,5.49,5.49,0,0,1,1.61-2.22.16.16,0,0,1,.22,0Z"/><path class="cls-10" d="M10,15a3.15,3.15,0,0,0,.11.87l-1.85.6a.14.14,0,0,1-.19-.1,5.3,5.3,0,0,1,0-2.74.15.15,0,0,1,.19-.11l1.85.61A3.1,3.1,0,0,0,10,15Z"/><path class="cls-10" d="M11.21,17.66l-1.14,1.58a.16.16,0,0,1-.22,0,5.49,5.49,0,0,1-1.61-2.22.16.16,0,0,1,.09-.2l1.85-.6A3.47,3.47,0,0,0,11.21,17.66Z"/><path class="cls-10" d="M11.56,9.26V6.82a8.63,8.63,0,0,0-1.64.54A9.29,9.29,0,0,0,8.76,8a.18.18,0,0,0,0,.27L10,10a.15.15,0,0,0,.2,0,6,6,0,0,1,.58-.33,5.75,5.75,0,0,1,.71-.3A.14.14,0,0,0,11.56,9.26Z"/><path class="cls-10" d="M11.56,12.18V9.78a6.09,6.09,0,0,0-.69.29l-.46.26a.15.15,0,0,0,0,.21Z"/></svg>